<svg width="44" height="52" viewBox="0 0 44 52" fill="none" xmlns="http://www.w3.org/2000/svg">
<path d="M29.1256 31.5526C28.8069 31.4483 26.7928 30.5405 28.0514 26.7147H28.0334C31.3141 23.3357 33.8212 17.8986 33.8212 12.5457C33.8212 4.31483 28.348 0 21.987 0C15.622 0 10.1788 4.31282 10.1788 12.5457C10.1788 17.9207 12.6719 23.3798 15.9727 26.7507C17.2593 30.1256 14.9586 31.3782 14.4776 31.5526C7.81599 33.9635 0 38.3545 0 42.6894V44.3147C0 50.2208 11.4514 51.5635 22.0491 51.5635C32.6628 51.5635 43.97 50.2208 43.97 44.3147V42.6894C43.97 38.2242 36.1159 33.8673 29.1256 31.5526ZM18.071 49.0063C18.071 43.8978 21.3236 37.0017 21.3236 37.0017L19.073 35.2361C19.073 33.5486 21.985 31.783 21.985 31.783C21.985 31.783 24.8889 33.5767 24.8889 35.2361L22.6463 37.0017C22.6463 37.0017 25.899 43.8718 25.899 49.0624C25.899 49.8761 18.071 49.6877 18.071 49.0063Z" fill="#825FA3"/>
</svg>
