<svg width="33" height="33" viewBox="0 0 33 33" fill="none" xmlns="http://www.w3.org/2000/svg">
<path d="M24.75 30.2502H8.25C7.52065 30.2502 6.82118 29.9605 6.30546 29.4448C5.78973 28.9291 5.5 28.2296 5.5 27.5002V5.50023C5.5 4.77089 5.78973 4.07141 6.30546 3.55569C6.82118 3.03996 7.52065 2.75023 8.25 2.75023H17.875C17.8873 2.74862 17.8998 2.74862 17.9121 2.75023H17.9204C17.9334 2.75429 17.9467 2.75706 17.9603 2.75848C18.0813 2.76673 18.2009 2.79011 18.3164 2.82861H18.3741C18.3995 2.84637 18.4234 2.86614 18.4456 2.88773C18.5954 2.95434 18.7319 3.04751 18.8485 3.16273L27.0985 11.4127C27.2137 11.5293 27.3069 11.6658 27.3735 11.8156C27.3855 11.8453 27.396 11.8756 27.4051 11.9064V11.9449C27.4436 12.059 27.4656 12.1786 27.4725 12.2996C27.4737 12.3133 27.4769 12.3267 27.4821 12.3395V12.3477C27.489 12.356 27.4959 12.3656 27.5 12.3752V27.5002C27.5 28.2296 27.2103 28.9291 26.6945 29.4448C26.1788 29.9605 25.4793 30.2502 24.75 30.2502ZM8.25 5.50023V27.5002H24.75V13.7502H17.875C17.5103 13.7502 17.1606 13.6054 16.9027 13.3475C16.6449 13.0896 16.5 12.7399 16.5 12.3752V5.50023H8.25ZM19.25 7.44448V11.0002H22.8057L19.25 7.44448ZM17.875 24.7502H15.125V22.0002H12.375V19.2502H15.125V16.5002H17.875V19.2502H20.625V22.0002H17.875V24.7502Z" fill="white"/>
</svg>
