<svg width="48" height="48" viewBox="0 0 48 48" fill="none" xmlns="http://www.w3.org/2000/svg">
<path d="M43.125 35.625H15.75C15.5437 35.625 15.375 35.7938 15.375 36V38.625C15.375 38.8312 15.5437 39 15.75 39H43.125C43.3312 39 43.5 38.8312 43.5 38.625V36C43.5 35.7938 43.3312 35.625 43.125 35.625ZM43.125 9H15.75C15.5437 9 15.375 9.16875 15.375 9.375V12C15.375 12.2063 15.5437 12.375 15.75 12.375H43.125C43.3312 12.375 43.5 12.2063 43.5 12V9.375C43.5 9.16875 43.3312 9 43.125 9ZM43.125 22.3125H15.75C15.5437 22.3125 15.375 22.4812 15.375 22.6875V25.3125C15.375 25.5187 15.5437 25.6875 15.75 25.6875H43.125C43.3312 25.6875 43.5 25.5187 43.5 25.3125V22.6875C43.5 22.4812 43.3312 22.3125 43.125 22.3125ZM10.125 33.375H4.6875C4.58437 33.375 4.5 33.4594 4.5 33.5625V35.1562C4.5 35.2594 4.58437 35.3438 4.6875 35.3438H8.08125V36.3047H6.40781C6.30469 36.3047 6.22031 36.3891 6.22031 36.4922V38.0859C6.22031 38.1891 6.30469 38.2734 6.40781 38.2734H8.08125V39.2812H4.6875C4.58437 39.2812 4.5 39.3656 4.5 39.4688V41.0625C4.5 41.1656 4.58437 41.25 4.6875 41.25H10.125C10.2281 41.25 10.3125 41.1656 10.3125 41.0625V33.5625C10.3125 33.4594 10.2281 33.375 10.125 33.375ZM4.6875 8.8125H6.46875V14.4375C6.46875 14.5406 6.55312 14.625 6.65625 14.625H8.53125C8.63438 14.625 8.71875 14.5406 8.71875 14.4375V7.125C8.71875 6.91875 8.55 6.75 8.34375 6.75H4.6875C4.58437 6.75 4.5 6.83437 4.5 6.9375V8.625C4.5 8.72812 4.58437 8.8125 4.6875 8.8125ZM10.125 20.0625H4.6875C4.58437 20.0625 4.5 20.1469 4.5 20.25V21.9375C4.5 22.0406 4.58437 22.125 4.6875 22.125H7.89375L4.59844 25.7672C4.53628 25.837 4.50134 25.9269 4.5 26.0203V27.75C4.5 27.8531 4.58437 27.9375 4.6875 27.9375H10.125C10.2281 27.9375 10.3125 27.8531 10.3125 27.75V26.0625C10.3125 25.9594 10.2281 25.875 10.125 25.875H6.91875L10.2141 22.2328C10.2762 22.163 10.3112 22.0731 10.3125 21.9797V20.25C10.3125 20.1469 10.2281 20.0625 10.125 20.0625Z" fill="#825FA3"/>
</svg>
