<svg width="48" height="48" viewBox="0 0 48 48" fill="none" xmlns="http://www.w3.org/2000/svg">
<path d="M26 32V34C26 35.5913 25.3679 37.1174 24.2426 38.2426C23.1174 39.3679 21.5913 40 20 40H12C10.4087 40 8.88258 39.3679 7.75736 38.2426C6.63214 37.1174 6 35.5913 6 34V14C6 12.4087 6.63214 10.8826 7.75736 9.75736C8.88258 8.63214 10.4087 8 12 8H20C21.5913 8 23.1174 8.63214 24.2426 9.75736C25.3679 10.8826 26 12.4087 26 14V16M34 32L42 24L34 32ZM42 24L34 16L42 24ZM42 24H14H42Z" stroke="#825FA3" stroke-width="4" stroke-linecap="round" stroke-linejoin="round"/>
</svg>
